<svg width="33" height="28" viewBox="0 0 33 28" fill="none" xmlns="http://www.w3.org/2000/svg">
<path d="M26.6859 21.3803L21.5842 16.2786C22.3796 14.9733 22.7991 13.4737 22.7965 11.9451C22.7965 7.33218 18.7992 3.33618 14.1862 3.33618C13.0895 3.336 12.0035 3.55189 10.9902 3.97151C9.97692 4.39113 9.05624 5.00626 8.28073 5.78177C7.50522 6.55727 6.89009 7.47796 6.47047 8.49124C6.05085 9.50453 5.83497 10.5905 5.83514 11.6873C5.83514 16.2989 9.83249 20.2962 14.4441 20.2962C15.9223 20.2976 17.374 19.9042 18.6493 19.1568L23.778 24.2882C24.0192 24.5287 24.3459 24.6638 24.6865 24.6638C25.0272 24.6638 25.3539 24.5287 25.5951 24.2882L26.8681 23.0151C27.369 22.5143 27.1867 21.8811 26.6859 21.3803ZM8.40554 11.6873C8.40537 10.928 8.55476 10.1762 8.84519 9.47469C9.13561 8.77319 9.56139 8.13577 10.0982 7.59884C10.635 7.06191 11.2723 6.63598 11.9738 6.34539C12.6752 6.0548 13.427 5.90523 14.1862 5.90523C17.3803 5.90523 20.2261 8.74968 20.2261 11.9451C20.2258 13.4785 19.6165 14.949 18.5322 16.0333C17.448 17.1175 15.9775 17.7268 14.4441 17.7272C11.25 17.7258 8.40554 14.88 8.40554 11.6873Z" fill="white"/>
</svg>
