<svg width="112" height="112" viewBox="0 0 112 112" fill="none" xmlns="http://www.w3.org/2000/svg">
<path d="M51.3333 84H60.6667V98H51.3333V84ZM74.6667 98V107.333H37.3333V98H74.6667ZM93.3333 84H18.6667C14.9548 83.9963 11.396 82.5201 8.77127 79.8954C6.14656 77.2707 4.67037 73.7119 4.66667 70V18.6666C4.67037 14.9547 6.14656 11.3959 8.77127 8.77122C11.396 6.14652 14.9548 4.67033 18.6667 4.66663H93.3333C97.0452 4.67033 100.604 6.14652 103.229 8.77122C105.853 11.3959 107.33 14.9547 107.333 18.6666V70C107.33 73.7119 105.853 77.2707 103.229 79.8954C100.604 82.5201 97.0452 83.9963 93.3333 84ZM18.6667 14C17.429 14 16.242 14.4916 15.3668 15.3668C14.4917 16.242 14 17.4289 14 18.6666V70C14 71.2376 14.4917 72.4246 15.3668 73.2998C16.242 74.175 17.429 74.6666 18.6667 74.6666H93.3333C94.571 74.6666 95.758 74.175 96.6332 73.2998C97.5083 72.4246 98 71.2376 98 70V18.6666C98 17.4289 97.5083 16.242 96.6332 15.3668C95.758 14.4916 94.571 14 93.3333 14H18.6667Z" fill="#233A21"/>
<path d="M74.6667 70L65.7347 40.2266L60.6667 60.6666L54.558 46.6666H53.0133L46.6667 65.3333L41.2673 46.354L38.7753 51.3333H23.3333V46.6666H35.8913L42 32.6666L46.984 49.994L49.6533 42H57.442L59.7147 46.5406L65.3333 18.6666L74.6667 56L77.6533 46.6666H88.6667V51.3333H81.0133L74.6667 70Z" fill="#233A21"/>
</svg>
