<svg width="100" height="124" viewBox="0 0 100 124" fill="none" xmlns="http://www.w3.org/2000/svg">
<path d="M91.0417 72.6465C91.0417 81.0693 88.6346 89.3029 84.1249 96.3062C79.6152 103.309 73.2054 108.768 65.706 111.991C58.2066 115.214 49.9545 116.058 41.9932 114.414C34.0319 112.771 26.719 108.715 20.9792 102.76C15.2394 96.8037 11.3306 89.2156 9.74696 80.9547C8.16336 72.6938 8.97612 64.1311 12.0825 56.3495C15.1888 48.5679 20.4492 41.9168 27.1985 37.2374C33.9478 32.558 41.8827 30.0603 50 30.0603H66.4167V51.3534L91.0417 25.8017L66.4167 0.25V21.5431H50C40.2593 21.5431 30.7373 24.5403 22.6382 30.1556C14.5391 35.7709 8.22657 43.7522 4.49895 53.0901C0.771339 62.428 -0.203975 72.7032 1.69635 82.6163C3.59667 92.5294 8.28727 101.635 15.175 108.782C22.0627 115.929 30.8383 120.796 40.3918 122.768C49.9454 124.74 59.8479 123.728 68.8472 119.86C77.8464 115.992 85.5382 109.442 90.9499 101.038C96.3615 92.6342 99.25 82.7538 99.25 72.6465H91.0417Z" fill="#233A21"/>
<path d="M44.1831 102.763C47.6098 102.763 50.3878 99.8719 50.3878 96.3055C50.3878 92.7392 47.6098 89.848 44.1831 89.848C40.7563 89.848 37.9783 92.7392 37.9783 96.3055C37.9783 99.8719 40.7563 102.763 44.1831 102.763Z" fill="#233A21"/>
<path d="M31.7736 85.8121C35.2004 85.8121 37.9784 82.921 37.9784 79.3546C37.9784 75.7882 35.2004 72.8971 31.7736 72.8971C28.3469 72.8971 25.5689 75.7882 25.5689 79.3546C25.5689 82.921 28.3469 85.8121 31.7736 85.8121Z" fill="#233A21"/>
<path d="M56.2047 85.8121C59.4173 85.8121 62.0217 82.921 62.0217 79.3546C62.0217 75.7882 59.4173 72.8971 56.2047 72.8971C52.9921 72.8971 50.3878 75.7882 50.3878 79.3546C50.3878 82.921 52.9921 85.8121 56.2047 85.8121Z" fill="#233A21"/>
<path d="M37.9783 66.962L52.6432 51.9102L58.4257 57.8411L43.7568 72.8971L37.9783 66.962ZM62.5152 66.962L77.1801 51.9102L82.9626 57.8411L68.2936 72.8971L62.5152 66.962Z" fill="#233A21"/>
</svg>
