<svg width="29" height="39" viewBox="0 0 29 39" fill="none" xmlns="http://www.w3.org/2000/svg">
<path d="M12.7102 38.1237C8.76797 33.2207 0 21.3376 0 14.6629C0 6.56472 6.49177 0 14.5 0C22.5052 0 29 6.56472 29 14.6629C29 21.3376 20.1641 33.2207 16.2898 38.1237C15.3609 39.2921 13.6391 39.2921 12.7102 38.1237ZM14.5 19.5506C17.1659 19.5506 19.3333 17.3588 19.3333 14.6629C19.3333 11.9671 17.1659 9.7753 14.5 9.7753C11.8341 9.7753 9.66667 11.9671 9.66667 14.6629C9.66667 17.3588 11.8341 19.5506 14.5 19.5506Z" fill="white"/>
</svg>
