<svg width="111" height="100" viewBox="0 0 111 100" fill="none" xmlns="http://www.w3.org/2000/svg">
<path d="M70.9002 9.37079L107.756 70.7568C113.052 79.5733 110.451 91.1729 101.942 96.662C99.0866 98.511 95.7578 99.4965 92.3558 99.5H18.6391C8.62352 99.5 0.5 91.0849 0.5 80.6953C0.5 77.1808 1.4515 73.7433 3.23901 70.7568L40.1001 9.37079C45.3911 0.554221 56.5782 -2.1463 65.0867 3.34274C67.4407 4.86075 69.4317 6.92327 70.9002 9.37079ZM55.5002 77.4998C56.9589 77.4998 58.3578 76.9203 59.3893 75.8889C60.4207 74.8574 61.0002 73.4585 61.0002 71.9998C61.0002 70.5411 60.4207 69.1421 59.3893 68.1107C58.3578 67.0792 56.9589 66.4997 55.5002 66.4997C54.0415 66.4997 52.6425 67.0792 51.6111 68.1107C50.5796 69.1421 50.0001 70.5411 50.0001 71.9998C50.0001 73.4585 50.5796 74.8574 51.6111 75.8889C52.6425 76.9203 54.0415 77.4998 55.5002 77.4998ZM55.5002 27.9994C54.0415 27.9994 52.6425 28.5789 51.6111 29.6104C50.5796 30.6418 50.0001 32.0408 50.0001 33.4995V55.4996C50.0001 56.9584 50.5796 58.3573 51.6111 59.3888C52.6425 60.4202 54.0415 60.9997 55.5002 60.9997C56.9589 60.9997 58.3578 60.4202 59.3893 59.3888C60.4207 58.3573 61.0002 56.9584 61.0002 55.4996V33.4995C61.0002 32.0408 60.4207 30.6418 59.3893 29.6104C58.3578 28.5789 56.9589 27.9994 55.5002 27.9994Z" fill="#233A21"/>
</svg>
