<svg width="24" height="31" viewBox="0 0 24 31" fill="none" xmlns="http://www.w3.org/2000/svg">
<path d="M9.1764 13.2392L11.6899 10.9239C12.3772 10.2896 12.8602 9.46324 13.0771 8.55095C13.2939 7.63866 13.2347 6.68203 12.9069 5.80385L11.835 2.92618C11.4346 1.85187 10.6418 0.971465 9.61819 0.46434C8.5946 -0.0427853 7.41721 -0.138478 6.32589 0.196756C2.30989 1.43206 -0.777002 5.18502 0.17317 9.64151C0.798037 12.5733 1.99394 16.2533 4.25938 20.1686C6.52949 24.0934 9.12257 26.9922 11.3459 29.0299C14.7019 32.1005 19.4996 31.3334 22.5865 28.4393C23.4139 27.6636 23.916 26.5998 23.9904 25.4649C24.0647 24.3299 23.7058 23.2091 22.9867 22.331L21.0208 19.931C20.4279 19.2052 19.6325 18.6744 18.7371 18.4069C17.8416 18.1394 16.887 18.1473 15.9961 18.4298L12.7477 19.458C11.9088 18.5876 11.1737 17.6219 10.5572 16.5804C9.96213 15.5271 9.49837 14.4041 9.1764 13.2368V13.2392Z" fill="#FBF8EF"/>
</svg>
